<svg width="685" height="266" viewBox="0 0 685 266" fill="none" xmlns="http://www.w3.org/2000/svg">
<path d="M166.156 184.354C186.405 188.201 204.844 184.817 222.072 173.064C221.086 174.453 220.169 175.901 219.105 177.221C203.535 196.532 183.87 207.823 159.748 211.345C106.607 219.105 62.1082 179.091 54.4777 129.81C46.6216 79.0713 77.9432 39.9128 114.267 25.1224C127.147 19.878 140.491 18.1579 154.248 19.7011C155.59 19.8517 157.101 19.569 158.37 19.0533C178.59 10.8403 199.721 6.82161 221.131 3.93013C247.043 0.430645 273.056 -0.539723 299.139 0.26585C346.307 1.72261 392.935 6.87983 437.254 25.1224C450.109 30.4141 462.259 37.5709 474.7 43.9399C476.372 44.7959 477.857 46.0481 479 48.1979C477.695 47.6703 476.367 47.195 475.088 46.6073C447.653 34.0064 418.682 27.5575 389.2 22.8838C356.946 17.7705 324.51 16.9675 292.043 18.349C247.316 20.2523 203.738 28.2759 162.746 48.0374C143.867 57.1391 126.487 68.5292 112.951 85.3684C99.3866 102.242 93.5066 121.077 99.8762 142.883C100.366 144.559 101.073 146.167 102.236 147.81C102.077 134.016 104.974 121.209 111.733 108.583C112.75 147.744 129.757 173.412 166.156 184.354Z" fill="#0099FF"/>
<path d="M230.59 158.927C221.574 167.772 210.767 171.474 199.089 172.545C179.561 174.337 162.103 169.4 146.963 153.736C162.176 152.188 173.775 145.863 180.328 131.91C184.134 123.806 184.672 115.219 182.252 106.589C177.978 91.3455 163.24 75.8208 140.178 79.986C142.335 78.0527 143.455 76.8717 144.736 75.9273C163.355 62.1974 183.891 52.9151 206.085 47.5988C207.458 47.27 209.592 47.8248 210.608 48.8163C233.233 70.902 242.334 98.3292 238.558 130.051C237.402 139.76 233.451 149.108 230.59 158.927Z" fill="#0099FF"/>
<path fill-rule="evenodd" clip-rule="evenodd" d="M3.17545 70.4689C1.75769 71.2767 1.16826 71.9107 0.568859 73.2727C0.0347778 74.4852 0.0130052 77.3679 0.00665429 147.377L0 220.22L0.641442 221.602C1.48702 223.424 3.17969 224.586 5.24585 224.765C7.20404 224.935 6.30766 225.216 22.0458 219.497C29.2641 216.875 35.2206 214.781 35.2823 214.846C35.344 214.91 33.9453 218.355 32.1743 222.501C28.5213 231.052 27.989 232.616 27.3642 236.634C26.0505 245.081 27.6658 253.158 31.6078 257.859C34.3185 261.091 38.6501 263.001 43.2654 263.001C44.7303 263.001 46.9244 262.785 48.1414 262.522C55.6388 260.895 74.0334 254.111 92.9954 245.977C107.439 239.781 134.481 227.271 135.318 226.398C135.84 225.853 135.1 225.52 131.857 224.836C111.883 220.623 94.6745 212.629 79.84 200.67C75.5434 197.206 67.4551 188.877 64.1426 184.505C52.5873 169.254 45.9291 151.873 43.3431 130.207C42.663 124.511 42.562 104.478 43.1837 98.7241C43.396 96.7619 43.4804 94.6611 43.3715 94.0552C42.9001 91.4347 36.3955 85.6879 27.7586 80.2616C23.2274 77.4149 14.3815 72.6779 10.8873 71.2266C7.78954 69.9403 4.64523 69.6315 3.17545 70.4689Z" fill="#0099FF"/>
<path d="M368.355 117.104L362.044 153.359H284.834L291.146 117.104H368.355ZM319.478 39.4922L285.506 235H240.926L274.629 39.4922H319.478ZM411.861 39.4922L377.889 235H333.174L367.012 39.4922H411.861ZM465.777 197.402L484.576 89.7119H527.679L502.435 235H462.42L465.777 197.402ZM473.699 169.473L483.233 169.338C482.517 176.321 481.264 183.84 479.473 191.897C477.683 199.954 474.997 207.518 471.417 214.59C467.836 221.572 463.047 227.257 457.049 231.643C451.051 235.94 443.532 237.999 434.49 237.82C426.971 237.73 420.883 236.074 416.229 232.852C411.574 229.539 407.993 225.243 405.486 219.961C402.98 214.679 401.413 208.905 400.787 202.639C400.16 196.283 400.205 189.972 400.921 183.706L416.631 89.7119H459.6L443.621 184.243C443.442 185.765 443.308 187.6 443.218 189.749C443.218 191.807 443.442 193.822 443.89 195.791C444.337 197.76 445.143 199.417 446.307 200.759C447.47 202.102 449.216 202.818 451.543 202.908C457.541 203.266 462.017 201.565 464.971 197.805C467.925 194.045 469.984 189.525 471.148 184.243C472.312 178.872 473.162 173.949 473.699 169.473ZM550.711 28.75H593.68L563.602 201.699L553.799 235H514.859L550.711 28.75ZM641.482 155.374L639.737 168.936C638.842 176.992 637.32 185.183 635.171 193.508C633.023 201.833 629.935 209.398 625.906 216.201C621.967 223.005 616.641 228.376 609.927 232.314C603.303 236.253 595.067 238.044 585.22 237.686C576.985 237.327 570.629 234.642 566.153 229.629C561.677 224.526 558.499 218.215 556.619 210.696C554.739 203.176 553.62 195.522 553.262 187.734C552.994 179.946 552.949 173.143 553.128 167.324L554.336 158.059C555.411 151.703 557.022 144.452 559.17 136.306C561.408 128.07 564.407 120.148 568.167 112.539C571.927 104.93 576.716 98.7085 582.535 93.8745C588.353 89.0405 595.425 86.7131 603.75 86.8921C613.329 87.0711 620.848 89.2643 626.309 93.4717C631.859 97.679 635.843 103.229 638.26 110.122C640.766 116.925 642.154 124.266 642.422 132.144C642.691 140.021 642.378 147.764 641.482 155.374ZM597.171 169.07L598.514 155.374C598.693 152.688 599.096 149.51 599.722 145.84C600.438 142.08 600.841 138.41 600.931 134.829C601.02 131.159 600.259 128.07 598.648 125.564C597.037 123.057 594.172 121.715 590.054 121.536C585.489 121.357 581.819 122.297 579.043 124.355C576.268 126.325 574.12 128.966 572.598 132.278C571.166 135.5 570.136 139.036 569.51 142.886C568.883 146.735 568.48 150.45 568.301 154.031L566.153 170.547C565.616 174.575 564.989 179.096 564.273 184.109C563.646 189.032 564.094 193.374 565.616 197.134C567.227 200.804 571.032 202.729 577.029 202.908C581.863 203.087 585.578 202.147 588.174 200.088C590.86 197.939 592.74 195.12 593.814 191.628C594.978 188.137 595.694 184.422 595.962 180.483C596.32 176.545 596.723 172.74 597.171 169.07Z" fill="#0099FF"/>
</svg>
